<svg xmlns="http://www.w3.org/2000/svg" width="385.293" height="165.035" viewBox="0 0 385.293 165.035">
  <defs>
    <style>
      .cls-1 {
        fill: #ffb9b9;
      }

      .cls-2 {
        fill: #ffb8b8;
      }

      .cls-3 {
        fill: #2f2e41;
      }

      .cls-4 {
        fill: #ccc;
      }

      .cls-5 {
        opacity: 0.1;
      }

      .cls-6 {
        fill: #e6e6e6;
      }

      .cls-7 {
        fill: #3f3d56;
      }

      .cls-8 {
        fill: #fff;
      }

      .cls-9 {
        fill: #f2f2f2;
      }

      .cls-10 {
        fill: #d84a35;
      }
    </style>
  </defs>
  <g id="img-worries" transform="translate(0 0)">
    <path id="パス_1" data-name="パス 1" class="cls-1" d="M283.636,469.166a3.685,3.685,0,1,0-7.335.484l-10.587,13.865a5.133,5.133,0,0,0,.694,5.637l.831.969,3.811-.762,4.319-3.811-.508-4.319,5.335-8.384-.007-.006A3.682,3.682,0,0,0,283.636,469.166Z" transform="translate(-199.067 -377.097)"/>
    <path id="パス_2" data-name="パス 2" class="cls-2" d="M27.2,396.4l-1.728-6.419,23.935-9.72,2.551,9.473Z" transform="translate(-15.843 -236.552)"/>
    <path id="パス_3" data-name="パス 3" class="cls-3" d="M95.83,628.734l-5.572-20.7.262-.07a8.343,8.343,0,0,1,10.224,5.886h0l3.4,12.641Z" transform="translate(-90.258 -465.57)"/>
    <path id="パス_4" data-name="パス 4" class="cls-2" d="M108.43,376.626l-5.376-3.909,12.521-22.6,7.934,5.77Z" transform="translate(-64.107 -217.8)"/>
    <path id="パス_5" data-name="パス 5" class="cls-3" d="M172.605,641.574l-17.334-12.606.159-.219a8.343,8.343,0,0,1,11.653-1.841h0l10.587,7.7Z" transform="translate(-130.701 -476.54)"/>
    <path id="パス_6" data-name="パス 6" class="cls-3" d="M249.417,543.554l-13.528-13.142a6.832,6.832,0,0,0-8.945-.5L201.4,558.288l2.287,3.557,24.389-16.513,16.513,21.594,15.751-7.875Z" transform="translate(-159.397 -416.304)"/>
    <path id="パス_7" data-name="パス 7" class="cls-1" d="M273.7,568.847l-9.908-.762-7.175-1.74a3.686,3.686,0,1,0-.7,4.783v.005l4.319,1.778,18.546,6.351,2.286-1.778Z" transform="translate(-189.519 -438.802)"/>
    <path id="パス_8" data-name="パス 8" class="cls-3" d="M139.143,371.537l-5.589,3.557h-6.605l-30.74-11.432-44.967,8.13-1.27-9.654L91.127,344.1l36.075,11.94Z" transform="translate(-31.086 -214.054)"/>
    <circle id="楕円形_1" data-name="楕円形 1" class="cls-1" cx="9.908" cy="9.908" r="9.908" transform="translate(86.209 75.932)"/>
    <path id="パス_9" data-name="パス 9" class="cls-4" d="M328.4,517.707a56.926,56.926,0,0,1-2.792,17.607l-.742,2.282-3.557,16.259-3.811,1.016-2.795-3.557-5.589-4.065-4.065-6.605-3.486-5.808-1.087-1.814L296.67,513.97l-14.481-8.13-4.827-.762,1.016-2.795,4.319-5.843,4.319-.508,1.27-1.016,1.016.508,5.6,2.158,18.162-7.673,2.657.434,9.146,7.622A56.877,56.877,0,0,1,328.4,517.707Z" transform="translate(-206.65 -392.309)"/>
    <path id="パス_10" data-name="パス 10" class="cls-5" d="M268.409,305.877l-9.654,6.351-14.41,12.992-1.087-1.814-3.049-15.243h.762l7.876-14.481Z" transform="translate(-149.427 -182.692)"/>
    <path id="パス_11" data-name="パス 11" class="cls-4" d="M235.884,289.649l-7.876,14.481-4.573,5.081-4.065,1.016,10.924,11.94,15.5-13.973,9.654-6.352Z" transform="translate(-136.464 -180.182)"/>
    <path id="パス_12" data-name="パス 12" class="cls-3" d="M318.53,426.506l-1.074.413a1.5,1.5,0,0,1-.4-2.081l.018-.026-1.984-.093a14.98,14.98,0,0,1,22.363-1.8c.09-.311,1.075.294,1.477.908.135-.506,1.058,1.941,1.385,3.67.151-.576.732.354.223,1.246.323-.047.468.778.219,1.238.353-.166.293.82-.089,1.478.5-.045-.043,10.329-7.6,9.573-.526-2.418-.378-2.268-1-5.377-.288-.306-.6-.585-.92-.863l-1.705-1.505c-1.983-1.75-3.787-3.911-6.429-4.565-1.816-.45-2.964-.551-1.974-2.6-.894.373-1.729.928-2.631,1.274C318.421,427.112,318.547,426.792,318.53,426.506Z" transform="translate(-230.119 -348.033)"/>
    <circle id="楕円形_2" data-name="楕円形 2" class="cls-1" cx="1.778" cy="1.778" r="1.778" transform="translate(99.293 85.204)"/>
    <rect id="長方形_4" data-name="長方形 4" class="cls-6" width="8.167" height="8.167" transform="translate(17.597 53.131) rotate(-86.19)"/>
    <path id="パス_13" data-name="パス 13" class="cls-4" d="M123.259,362.131l9.9.659-.659,9.9-9.9-.659Zm9.436,1.061-9.035-.6-.6,9.035,9.035.6Z" transform="translate(-110.377 -312.822)"/>
    <rect id="長方形_5" data-name="長方形 5" class="cls-6" width="8.167" height="8.167" transform="matrix(0.978, -0.21, 0.21, 0.978, 56.207, 22.533)"/>
    <path id="パス_14" data-name="パス 14" class="cls-4" d="M229.319,276.51l2.083,9.7-9.7,2.083-2.083-9.7Zm1.571,9.365-1.9-8.853-8.853,1.9,1.9,8.853Z" transform="translate(-170.732 -259.56)"/>
    <rect id="長方形_6" data-name="長方形 6" class="cls-6" width="8.167" height="8.167" transform="matrix(0.73, -0.684, 0.684, 0.73, 49.841, 64.747)"/>
    <path id="パス_15" data-name="パス 15" class="cls-4" d="M230.742,374.083l-7.238,6.779-6.78-7.238,7.238-6.78Zm-7.218,6.17,6.609-6.19-6.19-6.609-6.609,6.19Z" transform="translate(-168.929 -315.754)"/>
    <path id="パス_16" data-name="パス 16" class="cls-7" d="M644.848,231.659H403.2a6.651,6.651,0,0,0-6.651,6.651V372.948A6.651,6.651,0,0,0,403.2,379.6H644.848a6.651,6.651,0,0,0,6.651-6.651V238.31a6.651,6.651,0,0,0-6.651-6.651Z" transform="translate(-280.795 -231.659)"/>
    <rect id="長方形_7" data-name="長方形 7" class="cls-8" width="237.109" height="133.754" transform="translate(124.675 11.754)"/>
    <circle id="楕円形_3" data-name="楕円形 3" class="cls-8" cx="2.432" cy="2.432" r="2.432" transform="translate(240.595 3.242)"/>
    <path id="パス_17" data-name="パス 17" class="cls-9" d="M499.19,164.856H329.89V31.1Z" transform="translate(-205.215 -19.348)"/>
    <circle id="楕円形_4" data-name="楕円形 4" class="cls-10" cx="22.792" cy="22.792" r="22.792" transform="translate(138.984 89.916)"/>
    <path id="パス_18" data-name="パス 18" class="cls-7" d="M485.076,481.88a28.351,28.351,0,1,1,28.351-28.351,28.351,28.351,0,0,1-28.351,28.351Zm0-56.331a27.98,27.98,0,1,0,27.98,27.98,27.98,27.98,0,0,0-27.98-27.98Z" transform="translate(-318.227 -352.042)"/>
    <rect id="長方形_8" data-name="長方形 8" class="cls-7" width="22.149" height="4.628" transform="translate(284.746 81.243)"/>
    <rect id="長方形_9" data-name="長方形 9" class="cls-7" width="64.058" height="1.983" transform="translate(263.791 56.17)"/>
    <rect id="長方形_10" data-name="長方形 10" class="cls-7" width="64.058" height="1.983" transform="translate(263.791 63.963)"/>
    <rect id="長方形_11" data-name="長方形 11" class="cls-7" width="64.058" height="1.983" transform="translate(263.791 71.756)"/>
    <rect id="長方形_12" data-name="長方形 12" class="cls-10" width="9.256" height="9.256" transform="translate(335.753 19.758)"/>
    <path id="パス_19" data-name="パス 19" class="cls-4" d="M996.02,301.3H984.78v-11.24h11.24Zm-10.751-.489h10.262V290.553H985.269Z" transform="translate(-646.714 -267.991)"/>
    <path id="パス_20" data-name="パス 20" class="cls-7" d="M641.476,606.951h-23.14v-1.667a.331.331,0,0,0-.331-.331h-7.934a.33.33,0,0,0-.331.331v1.667h-4.959v-1.667a.331.331,0,0,0-.331-.331h-7.934a.33.33,0,0,0-.331.331h0v1.667h-4.959v-1.667a.331.331,0,0,0-.331-.331h-7.934a.331.331,0,0,0-.331.331h0v1.667h-4.959v-1.667a.331.331,0,0,0-.331-.331H569.41a.331.331,0,0,0-.331.331v1.667h-4.959v-1.667a.331.331,0,0,0-.331-.331h-7.934a.331.331,0,0,0-.331.331h0v1.667h-4.959v-1.667a.331.331,0,0,0-.331-.331H542.3a.331.331,0,0,0-.331.331h0v1.667h-4.959v-1.667a.331.331,0,0,0-.331-.331H474.535a.331.331,0,0,0-.331.331h0v1.667h-4.959v-1.667a.331.331,0,0,0-.331-.331h-7.934a.331.331,0,0,0-.331.331h0v1.667h-4.959v-1.667a.331.331,0,0,0-.331-.331h-7.934a.331.331,0,0,0-.331.331h0v1.667h-4.959v-1.667a.331.331,0,0,0-.331-.331h-7.934a.331.331,0,0,0-.331.331h0v1.667h-4.959v-1.667a.331.331,0,0,0-.331-.331H420.32a.331.331,0,0,0-.331.331h0v1.667h-4.959v-1.667a.331.331,0,0,0-.331-.331h-7.934a.33.33,0,0,0-.331.331v1.667h-4.959v-1.667a.331.331,0,0,0-.331-.331h-7.934a.331.331,0,0,0-.331.331h0v1.667H377.676a7.934,7.934,0,0,0-7.934,7.934v3.587a7.934,7.934,0,0,0,7.934,7.934h263.8a7.934,7.934,0,0,0,7.934-7.934v-3.587a7.934,7.934,0,0,0-7.934-7.934Z" transform="translate(-264.117 -463.875)"/>
  </g>
</svg>
