<svg xmlns="http://www.w3.org/2000/svg" width="494.224" height="197.959" viewBox="0 0 494.224 197.959">
  <defs>
    <style>
      .cls-1 {
        fill: #3f3d56;
      }

      .cls-2 {
        fill: #040d62;
      }

      .cls-3 {
        fill: #d84a35;
      }

      .cls-4 {
        fill: #e6e6e6;
      }

      .cls-5 {
        fill: #ccc;
      }

      .cls-6 {
        fill: #e4e4e4;
      }

      .cls-7 {
        fill: #f2f2f2;
      }

      .cls-8 {
        fill: #ffb6b6;
      }

      .cls-9 {
        fill: #2f2e41;
      }

      .cls-10 {
        fill: #fff;
      }

      .cls-11 {
        fill: #cacaca;
      }

      .cls-12 {
        fill: #9e616a;
      }
    </style>
  </defs>
  <g id="img-merit" transform="translate(-1282.776 -4540.826)">
    <g id="グループ_1464" data-name="グループ 1464" transform="translate(283.339 382.127)">
      <g id="Group_309" data-name="Group 309" transform="translate(999.437 4158.699)">
        <g id="Group_308" data-name="Group 308" transform="translate(0)">
          <path id="Path_5340" data-name="Path 5340" class="cls-1" d="M862.186,342.439H729.069a2.667,2.667,0,0,1-2.664-2.664V314.688h1.066v25.088a1.6,1.6,0,0,0,1.6,1.6H862.186a1.6,1.6,0,0,0,1.6-1.6V314.51h1.066v25.266a2.667,2.667,0,0,1-2.664,2.664Z" transform="translate(-588.49 -276.897)"/>
          <rect id="Rectangle_1044" data-name="Rectangle 1044" class="cls-1" width="312.811" height="1.065" transform="translate(9.141 37.256)"/>
          <circle id="Ellipse_264" data-name="Ellipse 264" class="cls-2" cx="9.163" cy="9.163" r="9.163" transform="translate(0 28.542)"/>
          <circle id="Ellipse_266" data-name="Ellipse 266" class="cls-3" cx="9.163" cy="9.163" r="9.163" transform="translate(93.118 28.542)"/>
          <circle id="Ellipse_268" data-name="Ellipse 268" class="cls-4" cx="9.163" cy="9.163" r="9.163" transform="translate(156.314 55.475)"/>
          <circle id="Ellipse_269" data-name="Ellipse 269" class="cls-5" cx="9.163" cy="9.163" r="9.163" transform="translate(204.356 55.475)"/>
          <circle id="Ellipse_270" data-name="Ellipse 270" class="cls-2" cx="9.163" cy="9.163" r="9.163" transform="translate(181.076 28.542)"/>
          <circle id="Ellipse_271" data-name="Ellipse 271" class="cls-3" cx="9.163" cy="9.163" r="9.163" transform="translate(311.533 28.542)"/>
          <circle id="Ellipse_272" data-name="Ellipse 272" class="cls-2" cx="9.163" cy="9.163" r="9.163" transform="translate(266.663 28.542)"/>
          <path id="Path_5341" data-name="Path 5341" class="cls-1" d="M537.584,289.969a.533.533,0,0,1-.533-.533v-26.3a2.667,2.667,0,0,1,2.664-2.664h25.929a.533.533,0,0,1,0,1.065H539.715a1.6,1.6,0,0,0-1.6,1.6v26.3A.533.533,0,0,1,537.584,289.969Z" transform="translate(-500.005 -251.648)"/>
          <circle id="Ellipse_265" data-name="Ellipse 265" class="cls-4" cx="9.163" cy="9.163" r="9.163" transform="translate(57.694)"/>
          <path id="Path_5342" data-name="Path 5342" class="cls-1" d="M922.117,289.436h-1.065v-26.3a2.667,2.667,0,0,1,2.664-2.664h25.929v1.065H923.715a1.6,1.6,0,0,0-1.6,1.6Z" transform="translate(-679.449 -251.648)"/>
          <circle id="Ellipse_265-2" data-name="Ellipse 265" class="cls-4" cx="9.163" cy="9.163" r="9.163" transform="translate(262.251)"/>
        </g>
      </g>
      <g id="undraw_team-collaboration_phnf" transform="translate(1129.043 4207.328)">
        <path id="パス_230" data-name="パス 230" class="cls-6" d="M167.221,614.991l-1.137,5.706c-.086.436-.175.88-.273,1.32a5.564,5.564,0,0,0-2.859.16,26.683,26.683,0,0,1,1.963,3.283,12.084,12.084,0,0,1-3.529,5.726,8.849,8.849,0,0,1-8.549,1.5l.051-.226c-1.893-3.673-.865-8.3,1.488-11.7A22.741,22.741,0,0,1,158.6,616.3c1.589-1.324,3.307-2.512,5.009-3.685a2.333,2.333,0,0,1,3.611,2.376Z" transform="translate(-144.128 -498.102)"/>
        <path id="a4b268fa-75d0-4ac1-9d87-14bdca948464-2189" class="cls-7" d="M154.17,664.541A45.77,45.77,0,0,1,153.535,654a16.582,16.582,0,0,1,3.2-8.694,14.464,14.464,0,0,1,3.711-3.363c.371-.234.712.354.343.587a13.749,13.749,0,0,0-5.439,6.562,22.013,22.013,0,0,0-1.168,9.494c.123,1.935.385,3.856.649,5.776a.35.35,0,0,1-.238.418.342.342,0,0,1-.418-.238Z" transform="translate(-145.056 -516.223)"/>
        <path id="パス_240" data-name="パス 240" class="cls-4" d="M217.268,388.3l.312-18.4a.585.585,0,0,0-1.168,0l-.312,18.4A.585.585,0,0,0,217.268,388.3Z" transform="translate(-183.32 -349.832)"/>
        <path id="パス_246" data-name="パス 246" class="cls-4" d="M86.169,166.9h0Z" transform="translate(-52.607 -149.377)"/>
        <path id="パス_248" data-name="パス 248" class="cls-4" d="M218.115,364.255s0,0,0,0Z" transform="translate(-184.55 -346.727)"/>
        <path id="パス_249" data-name="パス 249" class="cls-4" d="M218.113,364.255h0Z" transform="translate(-184.549 -346.727)"/>
        <path id="パス_250" data-name="パス 250" class="cls-4" d="M218.111,364.257h0Z" transform="translate(-184.547 -346.729)"/>
        <path id="パス_251" data-name="パス 251" class="cls-4" d="M86.177,166.9Z" transform="translate(-52.613 -149.375)"/>
        <path id="パス_252" data-name="パス 252" class="cls-4" d="M150.169,138.9h0Z" transform="translate(-91.68 -132.282)"/>
        <path id="パス_254" data-name="パス 254" class="cls-4" d="M282.111,336.257h0Z" transform="translate(-223.619 -329.634)"/>
        <path id="パス_255" data-name="パス 255" class="cls-4" d="M150.177,138.9Z" transform="translate(-91.686 -132.281)"/>
        <path id="パス_256" data-name="パス 256" class="cls-4" d="M282.115,336.255s0,0,0,0Z" transform="translate(-223.622 -329.633)"/>
        <path id="パス_257" data-name="パス 257" class="cls-4" d="M282.113,336.255h0Z" transform="translate(-223.621 -329.633)"/>
        <path id="パス_258" data-name="パス 258" class="cls-4" d="M212.177,152.9Z" transform="translate(-129.537 -140.828)"/>
        <path id="パス_260" data-name="パス 260" class="cls-4" d="M212.169,152.9h0Z" transform="translate(-129.531 -140.829)"/>
        <path id="パス_261" data-name="パス 261" class="cls-4" d="M344.113,350.255h0Z" transform="translate(-261.472 -338.18)"/>
        <path id="パス_262" data-name="パス 262" class="cls-4" d="M344.111,350.257h0Z" transform="translate(-261.47 -338.182)"/>
        <path id="パス_263" data-name="パス 263" class="cls-4" d="M344.115,350.255s0,0,0,0Z" transform="translate(-261.473 -338.18)"/>
        <path id="パス_265" data-name="パス 265" class="cls-4" d="M275.169,121.905h0Z" transform="translate(-167.993 -121.904)"/>
        <path id="パス_266" data-name="パス 266" class="cls-4" d="M407.113,319.255h0Z" transform="translate(-299.934 -319.255)"/>
        <path id="パス_267" data-name="パス 267" class="cls-4" d="M407.111,319.257h0Z" transform="translate(-299.932 -319.256)"/>
        <path id="パス_268" data-name="パス 268" class="cls-4" d="M407.115,319.255s0,0,0,0Z" transform="translate(-299.935 -319.255)"/>
        <path id="パス_269" data-name="パス 269" class="cls-4" d="M275.177,121.9Z" transform="translate(-167.999 -121.902)"/>
        <path id="パス_270" data-name="パス 270" class="cls-4" d="M466.113,339.255h0Z" transform="translate(-335.954 -331.465)"/>
        <path id="パス_272" data-name="パス 272" class="cls-4" d="M334.169,141.9h0Z" transform="translate(-204.013 -134.114)"/>
        <path id="パス_273" data-name="パス 273" class="cls-4" d="M334.177,141.9Z" transform="translate(-204.019 -134.112)"/>
        <path id="パス_274" data-name="パス 274" class="cls-4" d="M466.115,339.255s0,0,0,0Z" transform="translate(-335.955 -331.465)"/>
        <path id="パス_275" data-name="パス 275" class="cls-4" d="M466.111,339.257h0Z" transform="translate(-335.952 -331.466)"/>
        <path id="パス_277" data-name="パス 277" class="cls-8" d="M505.3,470.6l6.825-11.482,5.044,2.382s-8.692,10.856-8.969,11.168a2.671,2.671,0,1,1-2.9-2.069Z" transform="translate(-358.429 -404.645)"/>
        <path id="パス_278" data-name="パス 278" class="cls-2" d="M514.363,420.126l11.057,5.769a6.121,6.121,0,0,1,1.036,8.989l-7.622,8.744-3.321-4.5,2.56-5.352-4.956-1.307Z" transform="translate(-364.65 -380.837)"/>
        <path id="パス_279" data-name="パス 279" class="cls-8" d="M424.724,377.819l-1.246,13.3-5.578.009s3.2-13.533,3.317-13.934a2.671,2.671,0,1,1,3.507.626Z" transform="translate(-306.52 -351.99)"/>
        <path id="パス_280" data-name="パス 280" class="cls-2" d="M433.03,422.161l-12.84-2.355c-5.407-.65-7.626-4.208-6.65-7.678l3.14-11.167,4.929,2.642-.019,5.932,6.9-.943Z" transform="translate(-303.722 -369.137)"/>
        <path id="パス_281" data-name="パス 281" class="cls-8" d="M310.335,472.647H306.8l-1.68-13.618h5.211Z" transform="translate(-186.282 -327.72)"/>
        <path id="パス_282" data-name="パス 282" class="cls-9" d="M433.738,691.6H422.882v-.137a4.226,4.226,0,0,1,4.225-4.226h0l1.983-1.5,3.7,1.5h.948Z" transform="translate(-309.561 -542.992)"/>
        <path id="パス_283" data-name="パス 283" class="cls-8" d="M382.635,472.647h3.53l1.68-13.618h-5.211Z" transform="translate(-233.602 -327.72)"/>
        <path id="パス_284" data-name="パス 284" class="cls-9" d="M514.251,691.6h10.857v-.137a4.226,4.226,0,0,0-4.225-4.226h0l-1.983-1.5-3.7,1.5h-.948Z" transform="translate(-365.342 -542.992)"/>
        <path id="パス_285" data-name="パス 285" class="cls-9" d="M436.65,560.635c.052-.777.467-5.074.467-5.074l.993-9.113,1.75-24.157,1.56-6.35,7.722,3.008,6.266-3,7.448,2.381,5.8,2.175s.01.931.055,2.056a15.386,15.386,0,0,0,.412,3.746c.415.829.31,5.28.31,5.28s.412,9.056.931,10.049a6.9,6.9,0,0,1,.467,3.475c-.156.415.519,11.29.519,11.29s1.733,19.246.646,22.148-5.2,1-5.2,1,.2-.775-.993-1.139-4.821-27.655-4.821-27.655a53.022,53.022,0,0,0-1.3-7.2,41.026,41.026,0,0,1-1.192-6.109s-3.833-7.457-3.883-9.116c0,0-.5-1.552-.976.156s-1.872,5.8-1.872,5.8l-1.363,5.025-1.6,7.507-1.038,6.32s-1.554,8.388-1.8,8.751,0,8.026,0,8.026-1.2,6.526-2.9,7.666-6.2.018-6.2.018S436.6,561.412,436.65,560.635Z" transform="translate(-317.963 -439.332)"/>
        <path id="パス_286" data-name="パス 286" class="cls-2" d="M443.766,430.464l-.987,12.782-1.482,1.534a1.43,1.43,0,0,0,.075,2.059h0l-.817,1.4-.289,4.413a2.4,2.4,0,0,0,2.22,2.956l25.563,1.2a2.4,2.4,0,0,0,2.49-2.712l-2.174-16.364v-1.223l-.973-2.363.5-7.916,1.163-12.565-6.763-1.747-3.667-2.523-6.37.1-3.865,3.174-5.153.807-3.9.775-.5,1.079.993-.216,3.6,14.038Z" transform="translate(-319.306 -374.287)"/>
        <circle id="楕円形_43" data-name="楕円形 43" class="cls-8" cx="7.504" cy="7.504" r="7.504" transform="translate(128.489 18.39)"/>
        <path id="パス_287" data-name="パス 287" class="cls-9" d="M463.024,378.467l5.422-.277a2.237,2.237,0,0,0,2.573-1.6c.5-1.164,1-2.329,1.491-3.5a10.717,10.717,0,0,0,1.167-5.071,3.227,3.227,0,0,0-.938-2.115,1.791,1.791,0,0,0-2.177-.221,3.681,3.681,0,0,0-1.827-2.653,5.642,5.642,0,0,0-3.218-.682,7.767,7.767,0,0,0-4.423,1.743,9.6,9.6,0,0,1-1.128.894,1.771,1.771,0,0,1-1.377.255,1,1,0,0,1-.732-1.086,1.918,1.918,0,0,0-.491,2.532,1.77,1.77,0,0,1-1.729-.2,2.114,2.114,0,1,0,2.217,3.579,2.484,2.484,0,0,1,.164,1.652c-.043.565.109,1.266.653,1.423.736.211,1.332-.78,2.1-.769a1.151,1.151,0,0,1,.913.588,3.4,3.4,0,0,1,.365,1.067l.98,4.411" transform="translate(-328.84 -345.554)"/>
        <path id="パス_288" data-name="パス 288" class="cls-4" d="M807.995,563.849c0-1.162-.39-2.105-.869-2.107H676.511c-.481,0-.869.945-.872,2.107v47.833a.434.434,0,0,1-.392.432q-.526.051-1.052.094l-.026,0c-.191.017-.382.03-.572.046h0q-.147-.272-.291-.549a.437.437,0,0,1-.049-.2V561.115c0-.321.013-.644.035-.963a12.329,12.329,0,0,1,.163-1.305c.366-2.014,1.195-3.378,2.135-3.382h132.46a1.017,1.017,0,0,1,.4.085,1.554,1.554,0,0,1,.492.345,3.053,3.053,0,0,1,.483.661,8.7,8.7,0,0,1,.913,3.453c0,.013,0,.026,0,.039.03.351.046.709.043,1.067l.03,4.646.02,2.771.059,8.693.022,3.087.1,31.7h0a.434.434,0,0,1-.434.434h-1.743a.434.434,0,0,1-.434-.434Z" transform="translate(-462.415 -463.462)"/>
        <path id="パス_289" data-name="パス 289" class="cls-5" d="M904.833,499.652H890.759a.751.751,0,0,0-.75.752v22.233h15.576V500.4a.752.752,0,0,0-.752-.752Zm-6.99,12.632a1.67,1.67,0,0,1-1.662-1.662v-2.564a1.662,1.662,0,0,1,3.324,0v2.564A1.67,1.67,0,0,1,897.843,512.284Z" transform="translate(-594.745 -429.388)"/>
        <path id="パス_290" data-name="パス 290" class="cls-1" d="M889.884,556.837v2.145a.42.42,0,0,0,.419.419h14.833a.422.422,0,0,0,.419-.419v-2.145Z" transform="translate(-594.668 -464.3)"/>
        <path id="パス_291" data-name="パス 291" class="cls-4" d="M890.548,410.571H830.387a1.953,1.953,0,0,0-1.95,1.95v40.6a1.952,1.952,0,0,0,1.95,1.95h60.161a1.952,1.952,0,0,0,1.95-1.95v-40.6a1.953,1.953,0,0,0-1.95-1.95Z" transform="translate(-557.155 -375.003)"/>
        <path id="パス_292" data-name="パス 292" class="cls-10" d="M892.256,414.186H833.1a1.045,1.045,0,0,0-1.043,1.045v39.591a1.045,1.045,0,0,0,1.043,1.043h59.156a1.045,1.045,0,0,0,1.043-1.043V415.231A1.045,1.045,0,0,0,892.256,414.186Z" transform="translate(-559.364 -377.21)"/>
        <path id="パス_293" data-name="パス 293" class="cls-5" d="M900.85,559.242H865.655a.647.647,0,0,1-.633-.781l.546-2.594a.65.65,0,0,1,.633-.514h34.1a.65.65,0,0,1,.633.514l.546,2.594a.648.648,0,0,1-.634.781Z" transform="translate(-579.481 -463.394)"/>
        <rect id="長方形_25" data-name="長方形 25" class="cls-4" width="1.084" height="0.65" rx="0.325" transform="translate(286.97 92.427)"/>
        <rect id="長方形_26" data-name="長方形 26" class="cls-4" width="1.084" height="0.65" rx="0.325" transform="translate(289.138 92.427)"/>
        <rect id="長方形_27" data-name="長方形 27" class="cls-4" width="1.084" height="0.65" rx="0.325" transform="translate(291.306 92.427)"/>
        <rect id="長方形_28" data-name="長方形 28" class="cls-4" width="1.084" height="0.65" rx="0.325" transform="translate(293.474 92.427)"/>
        <rect id="長方形_29" data-name="長方形 29" class="cls-4" width="1.084" height="0.65" rx="0.325" transform="translate(295.642 92.427)"/>
        <rect id="長方形_30" data-name="長方形 30" class="cls-4" width="1.084" height="0.65" rx="0.325" transform="translate(297.81 92.427)"/>
        <rect id="長方形_31" data-name="長方形 31" class="cls-4" width="1.084" height="0.65" rx="0.325" transform="translate(299.977 92.427)"/>
        <rect id="長方形_32" data-name="長方形 32" class="cls-4" width="1.084" height="0.65" rx="0.325" transform="translate(302.145 92.427)"/>
        <rect id="長方形_33" data-name="長方形 33" class="cls-4" width="1.084" height="0.65" rx="0.325" transform="translate(304.313 92.427)"/>
        <rect id="長方形_34" data-name="長方形 34" class="cls-4" width="1.084" height="0.65" rx="0.325" transform="translate(306.481 92.427)"/>
        <rect id="長方形_35" data-name="長方形 35" class="cls-4" width="1.084" height="0.65" rx="0.325" transform="translate(308.649 92.427)"/>
        <rect id="長方形_36" data-name="長方形 36" class="cls-4" width="1.084" height="0.65" rx="0.325" transform="translate(310.817 92.427)"/>
        <rect id="長方形_37" data-name="長方形 37" class="cls-4" width="1.084" height="0.65" rx="0.325" transform="translate(312.985 92.427)"/>
        <rect id="長方形_38" data-name="長方形 38" class="cls-4" width="1.084" height="0.65" rx="0.325" transform="translate(315.153 92.427)"/>
        <rect id="長方形_39" data-name="長方形 39" class="cls-4" width="1.084" height="0.65" rx="0.325" transform="translate(317.321 92.427)"/>
        <rect id="長方形_40" data-name="長方形 40" class="cls-4" width="1.084" height="0.65" rx="0.325" transform="translate(319.489 92.427)"/>
        <rect id="長方形_41" data-name="長方形 41" class="cls-4" width="1.084" height="0.65" rx="0.325" transform="translate(286.944 93.511)"/>
        <rect id="長方形_42" data-name="長方形 42" class="cls-4" width="1.084" height="0.65" rx="0.325" transform="translate(289.112 93.511)"/>
        <rect id="長方形_43" data-name="長方形 43" class="cls-4" width="1.084" height="0.65" rx="0.325" transform="translate(291.28 93.511)"/>
        <rect id="長方形_44" data-name="長方形 44" class="cls-4" width="1.084" height="0.65" rx="0.325" transform="translate(293.448 93.511)"/>
        <rect id="長方形_45" data-name="長方形 45" class="cls-4" width="1.084" height="0.65" rx="0.325" transform="translate(295.616 93.511)"/>
        <rect id="長方形_46" data-name="長方形 46" class="cls-4" width="1.084" height="0.65" rx="0.325" transform="translate(297.784 93.511)"/>
        <rect id="長方形_47" data-name="長方形 47" class="cls-4" width="1.084" height="0.65" rx="0.325" transform="translate(299.952 93.511)"/>
        <rect id="長方形_48" data-name="長方形 48" class="cls-4" width="1.084" height="0.65" rx="0.325" transform="translate(302.12 93.511)"/>
        <rect id="長方形_49" data-name="長方形 49" class="cls-4" width="1.084" height="0.65" rx="0.325" transform="translate(304.288 93.511)"/>
        <rect id="長方形_50" data-name="長方形 50" class="cls-4" width="1.084" height="0.65" rx="0.325" transform="translate(306.455 93.511)"/>
        <rect id="長方形_51" data-name="長方形 51" class="cls-4" width="1.084" height="0.65" rx="0.325" transform="translate(308.623 93.511)"/>
        <rect id="長方形_52" data-name="長方形 52" class="cls-4" width="1.084" height="0.65" rx="0.325" transform="translate(310.791 93.511)"/>
        <rect id="長方形_53" data-name="長方形 53" class="cls-4" width="1.084" height="0.65" rx="0.325" transform="translate(312.959 93.511)"/>
        <rect id="長方形_54" data-name="長方形 54" class="cls-4" width="1.084" height="0.65" rx="0.325" transform="translate(315.127 93.511)"/>
        <rect id="長方形_55" data-name="長方形 55" class="cls-4" width="1.084" height="0.65" rx="0.325" transform="translate(317.295 93.511)"/>
        <rect id="長方形_56" data-name="長方形 56" class="cls-4" width="1.084" height="0.65" rx="0.325" transform="translate(319.463 93.511)"/>
        <rect id="長方形_57" data-name="長方形 57" class="cls-4" width="8.672" height="0.65" rx="0.325" transform="translate(297.35 94.812)"/>
        <path id="パス_294" data-name="パス 294" class="cls-11" d="M891.873,427.5H836.521a.22.22,0,1,1,0-.44h55.352a.22.22,0,1,1,0,.44Z" transform="translate(-561.956 -385.07)"/>
        <ellipse id="楕円形_44" data-name="楕円形 44" class="cls-5" cx="1.29" cy="1.319" rx="1.29" ry="1.319" transform="translate(277.043 38.229)"/>
        <ellipse id="楕円形_45" data-name="楕円形 45" class="cls-5" cx="1.29" cy="1.319" rx="1.29" ry="1.319" transform="translate(281.5 38.229)"/>
        <ellipse id="楕円形_46" data-name="楕円形 46" class="cls-5" cx="1.29" cy="1.319" rx="1.29" ry="1.319" transform="translate(285.956 38.229)"/>
        <path id="パス_295" data-name="パス 295" class="cls-5" d="M966.752,418.243h-3.165a.24.24,0,1,0,0,.479h3.166a.24.24,0,1,0,0-.479Z" transform="translate(-639.518 -379.687)"/>
        <path id="パス_296" data-name="パス 296" class="cls-5" d="M966.752,420.553h-3.165a.24.24,0,1,0,0,.479h3.166a.24.24,0,1,0,0-.479Z" transform="translate(-639.518 -381.098)"/>
        <path id="パス_297" data-name="パス 297" class="cls-5" d="M966.752,422.86h-3.165a.24.24,0,1,0,0,.479h3.166a.24.24,0,1,0,0-.479Z" transform="translate(-639.518 -382.506)"/>
        <rect id="長方形_58" data-name="長方形 58" class="cls-3" width="8.798" height="1.881" rx="0.941" transform="translate(298.853 54.423)"/>
        <rect id="長方形_59" data-name="長方形 59" class="cls-4" width="17.734" height="1.881" rx="0.941" transform="translate(294.385 58.185)"/>
        <rect id="長方形_60" data-name="長方形 60" class="cls-4" width="17.734" height="1.881" rx="0.941" transform="translate(294.385 61.948)"/>
        <path id="パス_298" data-name="パス 298" class="cls-8" d="M519.728,408.167l-3.188-1.525,4.38-13.327,4.706,2.25Z" transform="translate(-315.352 -287.6)"/>
        <path id="パス_299" data-name="パス 299" class="cls-8" d="M698.746,603.565c-.232.145-.464.288-.7.431-.466.286-.937.567-1.408.843-.237.138-.475.276-.712.412v.007l-.014,0,0,0-.361.089-.518-1.368-.239-.63-.337-.892-.618-1.632-3.255-8.6,5.061-1.248.19.775h0l.094.384,1.768,7.171.361,1.466.012.044.218.876.187.759.208.848Z" transform="translate(-472.993 -485.148)"/>
        <path id="パス_300" data-name="パス 300" class="cls-9" d="M723.036,521.688c-.321.515-.649,1.028-.979,1.536q-.921,1.419-1.89,2.8s0,0,0,0a6.615,6.615,0,0,1-1.241.906c-.019.014-.04.023-.059.035a4.572,4.572,0,0,1-1.044.419l-.4.1c-.473.112-.941.208-1.408.293q-1.244.221-2.464.318c-.066.007-.131.012-.2.016a38.1,38.1,0,0,1-10.019-.8c-1.682-.319-3.4-.7-5.176-1.1-.581-.131-1.164-.26-1.754-.389-.044-.009-.091-.021-.138-.03-.843-.185-1.7-.368-2.579-.548-1.105-.227-2.246-.447-3.431-.656l.084,1.67a12.573,12.573,0,0,0,.792,3.754,6.48,6.48,0,0,1,.061,5.089l-.408,1.181a4.031,4.031,0,0,1-.415,3.567l-.082.124,3.4,8.6.22.557h-1.74l-2.141,0H686.4l-5.235-10.5-.251-.5v-.026l.541-20.182c.007-.178.021-.358.044-.536a6.136,6.136,0,0,1,2.335-4.131,5.909,5.909,0,0,1,4.4-1.2l1.792.232,3.661.473,2.579.335.052.007,7.6.984.546-2.225.1-.038,3.2-1.173,11.073-4.059.028-.009.728-.267.087.141c.026.042.052.084.075.127a21.7,21.7,0,0,1,1.75,4.061,63.747,63.747,0,0,1,1.839,7.019q.032.155.056.281l.007.026c.007.04.012.066.014.073A6.55,6.55,0,0,1,723.036,521.688Z" transform="translate(-467.091 -433.455)"/>
        <path id="パス_301" data-name="パス 301" class="cls-9" d="M707.716,509.3c-.035-.15-.08-.3-.127-.45a32.036,32.036,0,0,0-1.3-3.284c-.553-1.218-1.215-2.522-2-3.935q-.573-1.026-1.232-2.134-.33-.555-.686-1.131a.587.587,0,0,0-.03-.052l-.068-.112-10.956,1.466-4.08.546-.244,2.033-.059.5s0,0,0,0l-.164,1.372v0l-.218,1.813-.019,0-6.054-.785-6.239-.808-3.352-.433a5.905,5.905,0,0,0-4.4,1.2,6.139,6.139,0,0,0-2.335,4.131c-.021.164-.035.333-.042.5l-3.162,7.492a48.343,48.343,0,0,0-3.574,14.062l-2.319,7.413.33.03,4.914.457,1.3.122,2.857-4.171c.326-.475.635-.965.923-1.466a22.259,22.259,0,0,0,1.262-2.539l6.181-14.708q.717.123,1.419.234,3.25.527,6.239.86a73.527,73.527,0,0,0,17.088.166q2.1-.256,4.068-.674.72-.151,1.422-.326c.11-.026.218-.052.326-.08a5.977,5.977,0,0,0,4.181-3.907A6.1,6.1,0,0,0,707.716,509.3Z" transform="translate(-451.304 -428.501)"/>
        <path id="パス_302" data-name="パス 302" class="cls-9" d="M640.446,620.212,637,618.558l-.541-.26-.864,2.122-6.033,1.328a1.431,1.431,0,0,0-.234,2.724l5.9,2.405,1.871-1.684-.459,2.26,2.22.906,2.433-7.745Z" transform="translate(-435.051 -501.822)"/>
        <path id="パス_303" data-name="パス 303" class="cls-9" d="M581.774,417.469l.221.557h-.221Z" transform="translate(-355.178 -302.347)"/>
        <path id="パス_304" data-name="パス 304" class="cls-9" d="M699.831,616.082l-3.615,1.252-.567.2.879,2.116-3.353,5.189a1.431,1.431,0,0,0,1.75,2.1l5.881-2.439.145-2.513,1.264,1.929,2.215-.918-3.721-7.216Z" transform="translate(-474.436 -500.284)"/>
        <path id="パス_305" data-name="パス 305" class="cls-8" d="M653.835,411.684a2.567,2.567,0,0,0,3.839.87l7.6,5.046.014-4.741-7.221-4.065a2.581,2.581,0,0,0-4.235,2.89Z" transform="translate(-450.38 -373.379)"/>
        <path id="パス_306" data-name="パス 306" class="cls-5" d="M668.874,416.9l3.546-4.035,14.44,8.573L706,419.688a6.473,6.473,0,0,1,7.036,7.042h0A6.48,6.48,0,0,1,706,432.579l-21.559-2Z" transform="translate(-459.741 -376.406)"/>
        <path id="パス_307" data-name="パス 307" class="cls-5" d="M754.373,423.215l-.033-.042h0a13.986,13.986,0,0,0-13.536,7.013l-1.625,2.862c-5.255,6.424-1.436,10.854-1.208,11.513l-1.824,8.41.409,2.815.2.836,20.82,10.879c1.185-5.7.039-10.548-4.279-14.256l4.178-13A18.314,18.314,0,0,0,754.373,423.215Z" transform="translate(-500.812 -382.656)"/>
        <path id="パス_312" data-name="パス 312" class="cls-2" d="M644.12,403.992h-6.678a1.526,1.526,0,0,1-1.509-1.311,33.963,33.963,0,0,1,0-9.145,1.526,1.526,0,0,1,1.484-1.311,8.356,8.356,0,0,1,6.727,0,1.508,1.508,0,0,1,1.147.553,1.543,1.543,0,0,1,.318,1.286,20.529,20.529,0,0,0,0,8.089,1.543,1.543,0,0,1-.318,1.286A1.507,1.507,0,0,1,644.12,403.992Z" transform="translate(-439.44 -363.371)"/>
        <path id="パス_313" data-name="パス 313" class="cls-10" d="M646.281,401.181H640.66a.351.351,0,1,1,0-.7h5.621a.351.351,0,0,1,0,.7Z" transform="translate(-442.301 -368.842)"/>
        <path id="パス_314" data-name="パス 314" class="cls-10" d="M646.281,408.4H640.66a.351.351,0,1,1,0-.7h5.621a.351.351,0,0,1,0,.7Z" transform="translate(-442.301 -373.247)"/>
        <path id="パス_315" data-name="パス 315" class="cls-10" d="M646.281,415.613H640.66a.351.351,0,1,1,0-.7h5.621a.351.351,0,1,1,0,.7Z" transform="translate(-442.301 -377.652)"/>
        <path id="パス_316" data-name="パス 316" class="cls-3" d="M343.12,447.992h-6.678a1.526,1.526,0,0,1-1.509-1.311,33.958,33.958,0,0,1,0-9.145,1.526,1.526,0,0,1,1.484-1.311,8.355,8.355,0,0,1,6.727,0,1.508,1.508,0,0,1,1.147.553,1.543,1.543,0,0,1,.318,1.286,20.531,20.531,0,0,0,0,8.089,1.543,1.543,0,0,1-.318,1.286,1.508,1.508,0,0,1-1.17.553Z" transform="translate(-255.678 -390.233)"/>
        <path id="パス_317" data-name="パス 317" class="cls-10" d="M345.281,445.181H339.66a.351.351,0,1,1,0-.7h5.621a.351.351,0,0,1,0,.7Z" transform="translate(-258.539 -395.704)"/>
        <path id="パス_318" data-name="パス 318" class="cls-10" d="M345.281,452.4H339.66a.351.351,0,1,1,0-.7h5.621a.351.351,0,0,1,0,.7Z" transform="translate(-258.539 -400.109)"/>
        <path id="パス_319" data-name="パス 319" class="cls-10" d="M345.281,459.613H339.66a.351.351,0,1,1,0-.7h5.621a.351.351,0,0,1,0,.7Z" transform="translate(-258.539 -404.515)"/>
        <path id="パス_320" data-name="パス 320" class="cls-8" d="M739.336,545.175a2.567,2.567,0,0,0,.641-3.884l4.586-7.887-4.734.267-3.63,7.449a2.581,2.581,0,0,0,3.136,4.056Z" transform="translate(-500.372 -449.993)"/>
        <path id="パス_321" data-name="パス 321" class="cls-5" d="M743.57,478.716l-4.238-3.3,7.7-14.923-2.886-19a6.473,6.473,0,0,1,6.613-7.441h0a6.48,6.48,0,0,1,6.256,6.683l-.713,21.639Z" transform="translate(-502.756 -389.333)"/>
        <path id="パス_322" data-name="パス 322" class="cls-8" d="M217.33,499.986a2.589,2.589,0,0,0-.36-3.953l4.122-20.472-4.552,1.461-3.3,19.8a2.6,2.6,0,0,0,4.089,3.162Z" transform="translate(-181.348 -414.68)"/>
        <path id="パス_323" data-name="パス 323" class="cls-5" d="M222.037,423.723l-2.824-2.132s-2.491-.176-2.932,4.316-1.347,13.248-1.347,13.248l-4.321,20.015,5.982,1.313,4.628-21.6L224,432.47Z" transform="translate(-179.969 -381.731)"/>
        <path id="パス_324" data-name="パス 324" class="cls-12" d="M96.057,296.163l15.914-.265,1.326-10.874H96.057Z" transform="translate(-58.645 -221.488)"/>
        <path id="パス_325" data-name="パス 325" class="cls-8" d="M132.827,463.216H136.5l1.748-14.17h-5.422Z" transform="translate(-81.093 -321.625)"/>
        <path id="パス_326" data-name="パス 326" class="cls-8" d="M73.738,464.031,77.412,464l1.648-14.182-4.778,1.1Z" transform="translate(-45.019 -322.099)"/>
        <path id="パス_327" data-name="パス 327" class="cls-8" d="M101.933,258.37l-.832,2.164.166,2.164,16.291,5.643-.808-9.472-1.831-2.164Z" transform="translate(-61.725 -204.2)"/>
        <circle id="楕円形_47" data-name="楕円形 47" class="cls-8" cx="5.819" cy="5.819" r="5.819" transform="translate(41.379 23.056)"/>
        <path id="パス_328" data-name="パス 328" class="cls-9" d="M261.275,677.583l5.807-.347v2.488l5.521,3.813a1.554,1.554,0,0,1-.883,2.833h-6.914l-1.192-2.461-.465,2.461h-2.607Z" transform="translate(-210.452 -537.804)"/>
        <path id="パス_329" data-name="パス 329" class="cls-9" d="M201.395,678.415l5.8-.387.017,2.488,5.548,3.775a1.554,1.554,0,0,1-.863,2.839l-6.914.048-1.209-2.453-.448,2.464-2.607.018Z" transform="translate(-173.933 -538.287)"/>
        <path id="パス_330" data-name="パス 330" class="cls-9" d="M201.425,559.054l2.675-21.382,3.183-22.544c-2.331-4.329,2.917-17.77,2.917-17.77l.741.036,16.768,3.163,0-.016c3.43,9.354,4.566,13.975,4.378,23.936l-.676,35.808h.212a1.326,1.326,0,0,1,0,2.652h-6.63a1.326,1.326,0,0,1,0-2.652h.171l-6.086-42.637-5.16,17.9-5.835,23.34c2.122-.53,1.792.7,1.792,1.395a1.326,1.326,0,0,1-1.326,1.326h-6.631a1.325,1.325,0,0,1-.489-2.557Z" transform="translate(-173.85 -427.987)"/>
        <path id="パス_331" data-name="パス 331" class="cls-5" d="M221.909,448.252l.53-5.3a1.057,1.057,0,0,1,.956-.794c.221-2.527,1.151-13.428,1.206-13.9l0-.02.423-9.033a1.336,1.336,0,0,1,1.247-1.271l2.233-.146a.118.118,0,0,0,.114-.118,1.878,1.878,0,0,1,1.878-1.878h6.612a1.759,1.759,0,0,1,1.744,1.539.117.117,0,0,0,.119.105h0a3.142,3.142,0,0,1,3.16,2.606c.9,5.26,2.716,17.2,1.82,23.834-.312,2.31.36.48.478,2.414a1.423,1.423,0,0,1-.354,1.032,1.026,1.026,0,0,1,.617,1.3l.116-.029a1.061,1.061,0,0,1-1.288.769l-17.3,2.344C225.658,451.558,221.766,448.821,221.909,448.252Z" transform="translate(-186.864 -378.186)"/>
        <path id="パス_332" data-name="パス 332" class="cls-8" d="M323.011,438.5a2.589,2.589,0,0,1-3.646,1.57l-6.688,6.1-.888-4.7,6.491-5.061a2.6,2.6,0,0,1,4.73,2.084Z" transform="translate(-241.738 -389.999)"/>
        <path id="パス_333" data-name="パス 333" class="cls-5" d="M269.716,424.96s-2.332-5.27-5.277-4.223-1.425,6.161-1.425,6.161l11.066,16.675s15.961-10.239,14.02-10.311-2.521-3.6-2.521-3.6l-8.436,4.215-.285-1.5-.458.458-1.18-.929Z" transform="translate(-211.721 -381.126)"/>
        <circle id="楕円形_48" data-name="楕円形 48" class="cls-8" cx="8.124" cy="8.124" r="8.124" transform="translate(240.638 21.797)"/>
        <path id="パス_334" data-name="パス 334" class="cls-9" d="M781.58,390.065a7.045,7.045,0,0,1-3.873,2.727,8.1,8.1,0,0,1-1.928.327,7.289,7.289,0,0,0-.573-2.142,6.015,6.015,0,0,1-.3,2.137,7.161,7.161,0,0,1-2.818-.755,6.21,6.21,0,0,1-3.323-4.457c-.344-2.222.663-4.4,1.028-6.622s-.321-5.029-2.493-5.612c-1.654-.444-1.468-.252-2.843.768,1.43,2.115-3.853,9.864-6.014,9.189-1.222-.382-2-1.5-2.257-1.5-1.7,2.927,1.5,7.859-1.724,8.883l.266-.266c1.946-2.394-2.122-7.461-.175-9.855a3.041,3.041,0,0,0,.961-2.311c-.152-.805-1.43-1.231-1.8-.57a3.041,3.041,0,0,0-1.966-4c-1.462-.353-1.435.082-2.9.271a7.282,7.282,0,0,0-.533-1.839,5.971,5.971,0,0,1-.219,1.874,2.354,2.354,0,0,1-1.423-.515c-1.2-.964-.954-2.989.114-4.093a7.347,7.347,0,0,1,4.173-1.759c.441-3.068,8.9-3.387,10.026-.322.478-2.289,3.343-3.477,5.57-2.767a7.861,7.861,0,0,1,4.586,4.982,50.365,50.365,0,0,1,1.542,6.83,11.293,11.293,0,0,0,3.092,6.161c1.744,1.554,4.586,2.068,6.424.625a5.144,5.144,0,0,1-.613,4.611Z" transform="translate(-506.747 -348.19)"/>
        <path id="パス_335" data-name="パス 335" class="cls-6" d="M1009.222,469.991l-1.137,5.706c-.086.436-.175.88-.273,1.32a5.565,5.565,0,0,0-2.859.16,26.685,26.685,0,0,1,1.963,3.283,12.084,12.084,0,0,1-3.529,5.726,8.849,8.849,0,0,1-8.549,1.5l.051-.226c-1.893-3.673-.865-8.3,1.488-11.7a22.742,22.742,0,0,1,4.226-4.467c1.589-1.324,3.307-2.512,5.009-3.685a2.333,2.333,0,0,1,3.611,2.376Z" transform="translate(-658.174 -409.578)"/>
        <path id="a4b268fa-75d0-4ac1-9d87-14bdca948464-2189-2" data-name="a4b268fa-75d0-4ac1-9d87-14bdca948464-2189" class="cls-7" d="M996.17,519.541A45.776,45.776,0,0,1,995.535,509a16.582,16.582,0,0,1,3.2-8.694,14.461,14.461,0,0,1,3.711-3.362c.371-.234.712.354.343.587a13.75,13.75,0,0,0-5.439,6.562,22.013,22.013,0,0,0-1.168,9.494c.123,1.935.385,3.856.648,5.776a.351.351,0,0,1-.238.418.342.342,0,0,1-.418-.238Z" transform="translate(-659.101 -427.7)"/>
        <path id="パス_336" data-name="パス 336" class="cls-11" d="M496.094,700.887l-363.691.12a.464.464,0,1,1,0-.927l363.691-.12a.464.464,0,1,1,0,.928Z" transform="translate(-131.939 -551.677)"/>
        <path id="パス_337" data-name="パス 337" class="cls-9" d="M195.7,372.916c-.892.428-1.891-.216-2.662-.854l.276.238a9.062,9.062,0,0,0-2.309,5.107c-.311,1.874-.346,3.791-.738,5.652a8.01,8.01,0,0,1-2.727,4.866c-2.037,1.525-4.846,1.427-7.345.96l-.1-.019a15.259,15.259,0,0,0,.8-6.049,13.873,13.873,0,0,1-3.331,5.459,31.838,31.838,0,0,1-4.837-1.762,3.847,3.847,0,0,1-2.38-2.178,2.9,2.9,0,0,1,1.245-2.865,15.989,15.989,0,0,1,2.94-1.508,4.449,4.449,0,0,0,2.374-2.191c.917-2.37-1.7-5.089-.677-7.418a4.991,4.991,0,0,1,2.888-2.249,42.377,42.377,0,0,1,5.424-1.83,11.859,11.859,0,0,1,4.966-.48,4.934,4.934,0,0,1,3.865,2.854,5.349,5.349,0,0,1,2.682,1.548A1.852,1.852,0,0,1,195.7,372.916Z" transform="translate(-155.353 -347.604)"/>
        <path id="パス_338" data-name="パス 338" class="cls-9" d="M239.3,374.942c-2.553-2.015-4.617-1.671-6.209-.419-.268-.3-1.407.522-1.793.4l-1.4,2.619a5.816,5.816,0,0,0-.9,3.288c-1.321,3.7,1.811,6.2,5.514,7.525a7.066,7.066,0,0,0,4.582.066l.046-.631.28.517s3.386,6.971,4.186,7.284c-.485-1.259-1.766-7.244-2.123-8.492a15.807,15.807,0,0,1,.133-6.047,9.37,9.37,0,0,0,.028-3.084l-.007-.045.792,1.6,1.777-1.118C243.539,376.43,243.525,374.063,239.3,374.942Z" transform="translate(-191.014 -352.375)"/>
      </g>
    </g>
  </g>
</svg>
